<svg width="16" height="15" viewBox="0 0 16 15" fill="none" xmlns="http://www.w3.org/2000/svg">
  <path d="M7.5.5l-7 3v8l7 3 7-3v-8l-7-3z" fill="#EAF7EC"/>
  <path fill-rule="evenodd" clip-rule="evenodd" d="M8.06.101a1.413 1.413 0 00-1.049 0L.296 2.788A.471.471 0 000 3.225v8.16a.942.942 0 00.593.874l6.768 2.707a.47.47 0 00.35 0l6.769-2.707a.942.942 0 00.592-.874v-8.16a.472.472 0 00-.295-.437L8.06.1v.001zm-.699.875a.471.471 0 01.35 0l6.118 2.446a.5.5 0 01.314.474l-.013.63v6.858l-5.696 2.278-.698.303a.499.499 0 01-.393.002L6.28 13.52.942 11.385V3.92h.001v-.03a.5.5 0 01.314-.468l.489-.195-.007-.003L7.361.976z" fill="#1FBC86"/>
  <path fill-rule="evenodd" clip-rule="evenodd" d="M8 0v14h-.8V0H8z" fill="#1FBC86"/>
</svg>